<?xml version="1.0" encoding="UTF-8"?>
<svg width="8px" height="2800px" viewBox="0 0 8 2800" version="1.1" xmlns="http://www.w3.org/2000/svg" xmlns:xlink="http://www.w3.org/1999/xlink">
    <!-- Generator: Sketch 59 (86127) - https://sketch.com -->
    <title>bg_btn PC</title>
    <desc>Created with Sketch.</desc>
    <defs>
        <path d="M41.2517948,0 C42.0270552,1.40718652 42.96819,2.67785361 44.0758056,3.81417207 C45.2230757,4.99117257 46.5300817,5.97246269 48,6.75887903 L48,41.241121 C46.5300817,42.0275373 45.2230757,43.0088274 44.0758056,44.1858279 C42.96819,45.3221464 42.0270552,46.5928135 41.2517948,48 L41.2517948,48 L6.74820525,48 C5.97294485,46.5928135 5.03181002,45.3221464 3.92419439,44.1858279 C2.77692433,43.0088274 1.46991826,42.0275373 -1.31450406e-13,41.241121 L-1.31450406e-13,6.75887903 C1.46991826,5.97246269 2.77692433,4.99117257 3.92419439,3.81417207 C5.03181002,2.67785361 5.97294485,1.40718652 6.74820525,0 L6.74820525,0 L41.2517948,0 Z M40.1096026,2.00130371 L7.89039744,2.00130371 C7.15728207,3.16253853 6.31170784,4.23494945 5.35395957,5.21751689 C4.34529123,6.25232393 3.22730532,7.15213769 2.00152375,7.91655729 L2.00152375,40.0834427 C3.22730532,40.8478623 4.34529123,41.7476761 5.35395957,42.7824831 C6.31198417,43.765334 7.15776998,44.8380803 7.89103196,45.9997014 L40.108968,45.9997014 C40.84223,44.8380803 41.6880158,43.765334 42.6460404,42.7824831 C43.6549838,41.747394 44.7733043,40.8473717 45.9994788,40.0828175 L45.9994788,7.91718246 C44.7733043,7.1526283 43.6549838,6.25260605 42.6460404,5.21751689 C41.6882922,4.23494945 40.8427179,3.16253853 40.1096026,2.00130371 Z" id="path-1"></path>
        <path d="M41.2517948,0 C42.0270552,1.40718652 42.96819,2.67785361 44.0758056,3.81417207 C45.2230757,4.99117257 46.5300817,5.97246269 48,6.75887903 L48,41.241121 C46.5300817,42.0275373 45.2230757,43.0088274 44.0758056,44.1858279 C42.96819,45.3221464 42.0270552,46.5928135 41.2517948,48 L41.2517948,48 L6.74820525,48 C5.97294485,46.5928135 5.03181002,45.3221464 3.92419439,44.1858279 C2.77692433,43.0088274 1.46991826,42.0275373 -1.31450406e-13,41.241121 L-1.31450406e-13,6.75887903 C1.46991826,5.97246269 2.77692433,4.99117257 3.92419439,3.81417207 C5.03181002,2.67785361 5.97294485,1.40718652 6.74820525,0 L6.74820525,0 L41.2517948,0 Z M40.1096026,2.00130371 L7.89039744,2.00130371 C7.15728207,3.16253853 6.31170784,4.23494945 5.35395957,5.21751689 C4.34529123,6.25232393 3.22730532,7.15213769 2.00152375,7.91655729 L2.00152375,40.0834427 C3.22730532,40.8478623 4.34529123,41.7476761 5.35395957,42.7824831 C6.31198417,43.765334 7.15776998,44.8380803 7.89103196,45.9997014 L40.108968,45.9997014 C40.84223,44.8380803 41.6880158,43.765334 42.6460404,42.7824831 C43.6549838,41.747394 44.7733043,40.8473717 45.9994788,40.0828175 L45.9994788,7.91718246 C44.7733043,7.1526283 43.6549838,6.25260605 42.6460404,5.21751689 C41.6882922,4.23494945 40.8427179,3.16253853 40.1096026,2.00130371 Z" id="path-3"></path>
        <path d="M42.6105957,1152 L42.61,1152.001 L42.7517875,1152 C44.0277039,1154.0071 45.5002882,1155.5766 47.5990411,1156.98706 L48,1157.24973 L48,1182.75027 C45.6851295,1184.22893 44.1074486,1185.86745 42.7517875,1188 L42.41,1187.997 L42.4105225,1188 L5.40905762,1188 L5.409,1187.999 L5.24821252,1188 C3.97229613,1185.9929 2.49971182,1184.4234 0.400958936,1183.01294 L0,1182.75027 L0,1157.24973 C2.31487054,1155.77107 3.89255136,1154.13255 5.24821252,1152 L5.478,1152.002 L5.47839355,1152 L42.6105957,1152 Z M6,1153 L5.75491736,1153.00667 C4.50809469,1154.67987 2.71666512,1156.53913 1.00083973,1157.74963 L1.00083973,1182.25037 C2.71666512,1183.46087 4.50809469,1185.32013 5.75491736,1186.99333 L5.75491736,1186.99333 L6,1187 L42,1187 L42.2450826,1186.99333 C43.492147,1185.31981 45.2840294,1183.46015 47.000158,1182.24966 L47.000158,1157.75034 C45.2840294,1156.53985 43.492147,1154.68019 42.2450826,1153.00667 L42.2450826,1153.00667 L42,1153 L6,1153 Z" id="path-5"></path>
        <path d="M18.6105957,1200 L18.61,1200.001 L18.7517875,1200 C20.0277039,1202.0071 21.5002882,1203.5766 23.5990411,1204.98706 L24,1205.24973 L24,1230.75027 C21.6851295,1232.22893 20.1074486,1233.86745 18.7517875,1236 L18.41,1235.997 L18.4105225,1236 L-18.5909424,1236 L-18.591,1235.999 L-18.7517875,1236 C-20.0277039,1233.9929 -21.5002882,1232.4234 -23.5990411,1231.01294 L-24,1230.75027 L-24,1205.24973 C-21.6851295,1203.77107 -20.1074486,1202.13255 -18.7517875,1200 L-18.522,1200.002 L-18.5216064,1200 L18.6105957,1200 Z M-18,1201 L-18.2450826,1201.00667 C-19.4919053,1202.67987 -21.2833349,1204.53913 -22.9991603,1205.74963 L-22.9991603,1230.25037 C-21.2833349,1231.46087 -19.4919053,1233.32013 -18.2450826,1234.99333 L-18.2450826,1234.99333 L-18,1235 L18,1235 L18.2450826,1234.99333 C19.492147,1233.31981 21.2840294,1231.46015 23.000158,1230.24966 L23.000158,1205.75034 C21.2840294,1204.53985 19.492147,1202.68019 18.2450826,1201.00667 L18.2450826,1201.00667 L18,1201 L-18,1201 Z" id="path-7"></path>
        <path d="M2.6105957,1248 L2.61,1248.001 L2.75178748,1248 C4.02770387,1250.0071 5.50028818,1251.5766 7.59904106,1252.98706 L8,1253.24973 L8,1278.75027 C5.68512946,1280.22893 4.10744864,1281.86745 2.75178748,1284 L2.41,1283.997 L2.41052246,1284 L-34.5909424,1284 L-34.591,1283.999 L-34.7517875,1284 C-36.0277039,1281.9929 -37.5002882,1280.4234 -39.5990411,1279.01294 L-40,1278.75027 L-40,1253.24973 C-37.6851295,1251.77107 -36.1074486,1250.13255 -34.7517875,1248 L-34.522,1248.002 L-34.5216064,1248 L2.6105957,1248 Z M-34,1249 L-34.2450826,1249.00667 C-35.4919053,1250.67987 -37.2833349,1252.53913 -38.9991603,1253.74963 L-38.9991603,1278.25037 C-37.2833349,1279.46087 -35.4919053,1281.32013 -34.2450826,1282.99333 L-34.2450826,1282.99333 L-34,1283 L2,1283 L2.24508264,1282.99333 C3.49214699,1281.31981 5.28402938,1279.46015 7.00015803,1278.24966 L7.00015803,1253.75034 C5.28402938,1252.53985 3.49214699,1250.68019 2.24508264,1249.00667 L2.24508264,1249.00667 L2,1249 L-34,1249 Z" id="path-9"></path>
        <path d="M42.6105957,1296 L42.61,1296.001 L42.7517875,1296 C44.0277039,1298.0071 45.5002882,1299.5766 47.5990411,1300.98706 L48,1301.24973 L48,1326.75027 C45.6851295,1328.22893 44.1074486,1329.86745 42.7517875,1332 L42.41,1331.997 L42.4105225,1332 L5.40905762,1332 L5.409,1331.999 L5.24821252,1332 C3.97229613,1329.9929 2.49971182,1328.4234 0.400958936,1327.01294 L0,1326.75027 L0,1301.24973 C2.31487054,1299.77107 3.89255136,1298.13255 5.24821252,1296 L5.478,1296.002 L5.47839355,1296 L42.6105957,1296 Z M6,1297 L5.75491736,1297.00667 C4.50809469,1298.67987 2.71666512,1300.53913 1.00083973,1301.74963 L1.00083973,1326.25037 C2.71666512,1327.46087 4.50809469,1329.32013 5.75491736,1330.99333 L5.75491736,1330.99333 L6,1331 L42,1331 L42.2450826,1330.99333 C43.492147,1329.31981 45.2840294,1327.46015 47.000158,1326.24966 L47.000158,1301.75034 C45.2840294,1300.53985 43.492147,1298.68019 42.2450826,1297.00667 L42.2450826,1297.00667 L42,1297 L6,1297 Z" id="path-11"></path>
        <path d="M18.6105957,1344 L18.61,1344.001 L18.7517875,1344 C20.0277039,1346.0071 21.5002882,1347.5766 23.5990411,1348.98706 L24,1349.24973 L24,1374.75027 C21.6851295,1376.22893 20.1074486,1377.86745 18.7517875,1380 L18.41,1379.997 L18.4105225,1380 L-18.5909424,1380 L-18.591,1379.999 L-18.7517875,1380 C-20.0277039,1377.9929 -21.5002882,1376.4234 -23.5990411,1375.01294 L-24,1374.75027 L-24,1349.24973 C-21.6851295,1347.77107 -20.1074486,1346.13255 -18.7517875,1344 L-18.522,1344.002 L-18.5216064,1344 L18.6105957,1344 Z M-18,1345 L-18.2450826,1345.00667 C-19.4919053,1346.67987 -21.2833349,1348.53913 -22.9991603,1349.74963 L-22.9991603,1374.25037 C-21.2833349,1375.46087 -19.4919053,1377.32013 -18.2450826,1378.99333 L-18.2450826,1378.99333 L-18,1379 L18,1379 L18.2450826,1378.99333 C19.492147,1377.31981 21.2840294,1375.46015 23.000158,1374.24966 L23.000158,1349.75034 C21.2840294,1348.53985 19.492147,1346.68019 18.2450826,1345.00667 L18.2450826,1345.00667 L18,1345 L-18,1345 Z" id="path-13"></path>
        <path d="M2.6105957,1392 L2.61,1392.001 L2.75178748,1392 C4.02770387,1394.0071 5.50028818,1395.5766 7.59904106,1396.98706 L8,1397.24973 L8,1422.75027 C5.68512946,1424.22893 4.10744864,1425.86745 2.75178748,1428 L2.41,1427.997 L2.41052246,1428 L-34.5909424,1428 L-34.591,1427.999 L-34.7517875,1428 C-36.0277039,1425.9929 -37.5002882,1424.4234 -39.5990411,1423.01294 L-40,1422.75027 L-40,1397.24973 C-37.6851295,1395.77107 -36.1074486,1394.13255 -34.7517875,1392 L-34.522,1392.002 L-34.5216064,1392 L2.6105957,1392 Z M-34,1393 L-34.2450826,1393.00667 C-35.4919053,1394.67987 -37.2833349,1396.53913 -38.9991603,1397.74963 L-38.9991603,1422.25037 C-37.2833349,1423.46087 -35.4919053,1425.32013 -34.2450826,1426.99333 L-34.2450826,1426.99333 L-34,1427 L2,1427 L2.24508264,1426.99333 C3.49214699,1425.31981 5.28402938,1423.46015 7.00015803,1422.24966 L7.00015803,1397.75034 C5.28402938,1396.53985 3.49214699,1394.68019 2.24508264,1393.00667 L2.24508264,1393.00667 L2,1393 L-34,1393 Z" id="path-15"></path>
    </defs>
    <g id="bg_btn-PC" stroke="none" stroke-width="1" fill="none" fill-rule="evenodd">
        <g id="shape" fill="#B79D59" fill-rule="nonzero">
            <path d="M41.2517948,0 C42.0270552,1.40718652 42.96819,2.67785361 44.0758056,3.81417207 C45.2230757,4.99117257 46.5300817,5.97246269 48,6.75887903 L48,41.241121 C46.5300817,42.0275373 45.2230757,43.0088274 44.0758056,44.1858279 C42.96819,45.3221464 42.0270552,46.5928135 41.2517948,48 L41.2517948,48 L6.74820525,48 C5.97294485,46.5928135 5.03181002,45.3221464 3.92419439,44.1858279 C2.77692433,43.0088274 1.46991826,42.0275373 -1.31450406e-13,41.241121 L-1.31450406e-13,6.75887903 C1.46991826,5.97246269 2.77692433,4.99117257 3.92419439,3.81417207 C5.03181002,2.67785361 5.97294485,1.40718652 6.74820525,0 L6.74820525,0 L41.2517948,0 Z M40.1096026,2.00130371 L7.89039744,2.00130371 C7.15728207,3.16253853 6.31170784,4.23494945 5.35395957,5.21751689 C4.34529123,6.25232393 3.22730532,7.15213769 2.00152375,7.91655729 L2.00152375,40.0834427 C3.22730532,40.8478623 4.34529123,41.7476761 5.35395957,42.7824831 C6.31198417,43.765334 7.15776998,44.8380803 7.89103196,45.9997014 L40.108968,45.9997014 C40.84223,44.8380803 41.6880158,43.765334 42.6460404,42.7824831 C43.6549838,41.747394 44.7733043,40.8473717 45.9994788,40.0828175 L45.9994788,7.91718246 C44.7733043,7.1526283 43.6549838,6.25260605 42.6460404,5.21751689 C41.6882922,4.23494945 40.8427179,3.16253853 40.1096026,2.00130371 Z" id="path-1"></path>
        </g>
        <path d="M41.2517948,1728 C42.0270552,1729.40719 42.96819,1730.67785 44.0758056,1731.81417 C45.2230757,1732.99117 46.5300817,1733.97246 48,1734.75888 L48,1761.24112 C46.5300817,1762.02754 45.2230757,1763.00883 44.0758056,1764.18583 C42.96819,1765.32215 42.0270552,1766.59281 41.2517948,1768 L41.2517948,1768 L6.74820525,1768 C5.97294485,1766.59281 5.03181002,1765.32215 3.92419439,1764.18583 C2.77692433,1763.00883 1.46991826,1762.02754 -1.31450406e-13,1761.24112 L-1.31450406e-13,1734.75888 C1.46991826,1733.97246 2.77692433,1732.99117 3.92419439,1731.81417 C5.03181002,1730.67785 5.97294485,1729.40719 6.74820525,1728 L6.74820525,1728 L41.2517948,1728 Z M40.1096026,1730.0013 L7.89039744,1730.0013 C7.15728207,1731.16254 6.31170784,1732.23495 5.35395957,1733.21752 C4.34529123,1734.25232 3.22730532,1735.15214 2.00152375,1735.91656 L2.00152375,1760.08344 C3.22730532,1760.84786 4.34529123,1761.74768 5.35395957,1762.78248 C6.31198417,1763.76533 7.15776998,1764.83808 7.89103196,1765.9997 L40.108968,1765.9997 C40.84223,1764.83808 41.6880158,1763.76533 42.6460404,1762.78248 C43.6549838,1761.74739 44.7733043,1760.84737 45.9994788,1760.08282 L45.9994788,1735.91718 C44.7733043,1735.15263 43.6549838,1734.25261 42.6460404,1733.21752 C41.6882922,1732.23495 40.8427179,1731.16254 40.1096026,1730.0013 Z" id="Mask" fill="#C8C8C8"></path>
        <path d="M27.2517948,1778 C28.0270552,1779.40719 28.96819,1780.67785 30.0758056,1781.81417 C31.2230757,1782.99117 32.5300817,1783.97246 34,1784.75888 L34,1811.24112 C32.5300817,1812.02754 31.2230757,1813.00883 30.0758056,1814.18583 C28.96819,1815.32215 28.0270552,1816.59281 27.2517948,1818 L27.2517948,1818 L-7.25179475,1818 C-8.02705515,1816.59281 -8.96818998,1815.32215 -10.0758056,1814.18583 C-11.2230757,1813.00883 -12.5300817,1812.02754 -14,1811.24112 L-14,1784.75888 C-12.5300817,1783.97246 -11.2230757,1782.99117 -10.0758056,1781.81417 C-8.96818998,1780.67785 -8.02705515,1779.40719 -7.25179475,1778 L-7.25179475,1778 L27.2517948,1778 Z M26.1096026,1780.0013 L-6.10960256,1780.0013 C-6.84271793,1781.16254 -7.68829216,1782.23495 -8.64604043,1783.21752 C-9.65470877,1784.25232 -10.7726947,1785.15214 -11.9984763,1785.91656 L-11.9984763,1810.08344 C-10.7726947,1810.84786 -9.65470877,1811.74768 -8.64604043,1812.78248 C-7.68801583,1813.76533 -6.84223002,1814.83808 -6.10896804,1815.9997 L26.108968,1815.9997 C26.84223,1814.83808 27.6880158,1813.76533 28.6460404,1812.78248 C29.6549838,1811.74739 30.7733043,1810.84737 31.9994788,1810.08282 L31.9994788,1785.91718 C30.7733043,1785.15263 29.6549838,1784.25261 28.6460404,1783.21752 C27.6882922,1782.23495 26.8427179,1781.16254 26.1096026,1780.0013 Z" id="Mask" fill="#C8C8C8"></path>
        <path d="M1.25179475,1824 C2.02705515,1825.40719 2.96818998,1826.67785 4.07580561,1827.81417 C5.22307567,1828.99117 6.53008174,1829.97246 8,1830.75888 L8,1857.24112 C6.53008174,1858.02754 5.22307567,1859.00883 4.07580561,1860.18583 C2.96818998,1861.32215 2.02705515,1862.59281 1.25179475,1864 L1.25179475,1864 L-33.2517948,1864 C-34.0270552,1862.59281 -34.96819,1861.32215 -36.0758056,1860.18583 C-37.2230757,1859.00883 -38.5300817,1858.02754 -40,1857.24112 L-40,1830.75888 C-38.5300817,1829.97246 -37.2230757,1828.99117 -36.0758056,1827.81417 C-34.96819,1826.67785 -34.0270552,1825.40719 -33.2517948,1824 L-33.2517948,1824 L1.25179475,1824 Z M0.109602563,1826.0013 L-32.1096026,1826.0013 C-32.8427179,1827.16254 -33.6882922,1828.23495 -34.6460404,1829.21752 C-35.6547088,1830.25232 -36.7726947,1831.15214 -37.9984763,1831.91656 L-37.9984763,1856.08344 C-36.7726947,1856.84786 -35.6547088,1857.74768 -34.6460404,1858.78248 C-33.6880158,1859.76533 -32.84223,1860.83808 -32.108968,1861.9997 L0.108968043,1861.9997 C0.842230019,1860.83808 1.68801583,1859.76533 2.64604043,1858.78248 C3.65498376,1857.74739 4.77330428,1856.84737 5.99947882,1856.08282 L5.99947882,1831.91718 C4.77330428,1831.15263 3.65498376,1830.25261 2.64604043,1829.21752 C1.68829216,1828.23495 0.842717935,1827.16254 0.109602563,1826.0013 Z" id="Mask" fill="#C8C8C8"></path>
        <g id="shape" transform="translate(-24.000000, 48.000000)">
            <mask id="mask-2" fill="white">
                <use xlink:href="#path-1"></use>
            </mask>
            <use id="path-1" fill="#B79D59" fill-rule="nonzero" xlink:href="#path-1"></use>
        </g>
        <g id="shape" transform="translate(-40.000000, 96.000000)" fill="#B79D59" fill-rule="nonzero">
            <path d="M41.2517948,0 C42.0270552,1.40718652 42.96819,2.67785361 44.0758056,3.81417207 C45.2230757,4.99117257 46.5300817,5.97246269 48,6.75887903 L48,41.241121 C46.5300817,42.0275373 45.2230757,43.0088274 44.0758056,44.1858279 C42.96819,45.3221464 42.0270552,46.5928135 41.2517948,48 L41.2517948,48 L6.74820525,48 C5.97294485,46.5928135 5.03181002,45.3221464 3.92419439,44.1858279 C2.77692433,43.0088274 1.46991826,42.0275373 -1.31450406e-13,41.241121 L-1.31450406e-13,6.75887903 C1.46991826,5.97246269 2.77692433,4.99117257 3.92419439,3.81417207 C5.03181002,2.67785361 5.97294485,1.40718652 6.74820525,0 L6.74820525,0 L41.2517948,0 Z M40.1096026,2.00130371 L7.89039744,2.00130371 C7.15728207,3.16253853 6.31170784,4.23494945 5.35395957,5.21751689 C4.34529123,6.25232393 3.22730532,7.15213769 2.00152375,7.91655729 L2.00152375,40.0834427 C3.22730532,40.8478623 4.34529123,41.7476761 5.35395957,42.7824831 C6.31198417,43.765334 7.15776998,44.8380803 7.89103196,45.9997014 L40.108968,45.9997014 C40.84223,44.8380803 41.6880158,43.765334 42.6460404,42.7824831 C43.6549838,41.747394 44.7733043,40.8473717 45.9994788,40.0828175 L45.9994788,7.91718246 C44.7733043,7.1526283 43.6549838,6.25260605 42.6460404,5.21751689 C41.6882922,4.23494945 40.8427179,3.16253853 40.1096026,2.00130371 Z" id="path-1"></path>
        </g>
        <path d="M41.2517948,1872 C42.0270552,1873.40719 42.96819,1874.67785 44.0758056,1875.81417 C45.2230757,1876.99117 46.5300817,1877.97246 48,1878.75888 L48,1905.24112 C46.5300817,1906.02754 45.2230757,1907.00883 44.0758056,1908.18583 C42.96819,1909.32215 42.0270552,1910.59281 41.2517948,1912 L41.2517948,1912 L6.74820525,1912 C5.97294485,1910.59281 5.03181002,1909.32215 3.92419439,1908.18583 C2.77692433,1907.00883 1.46991826,1906.02754 -1.31450406e-13,1905.24112 L-1.31450406e-13,1878.75888 C1.46991826,1877.97246 2.77692433,1876.99117 3.92419439,1875.81417 C5.03181002,1874.67785 5.97294485,1873.40719 6.74820525,1872 L6.74820525,1872 L41.2517948,1872 Z M40.1096026,1874.0013 L7.89039744,1874.0013 C7.15728207,1875.16254 6.31170784,1876.23495 5.35395957,1877.21752 C4.34529123,1878.25232 3.22730532,1879.15214 2.00152375,1879.91656 L2.00152375,1904.08344 C3.22730532,1904.84786 4.34529123,1905.74768 5.35395957,1906.78248 C6.31198417,1907.76533 7.15776998,1908.83808 7.89103196,1909.9997 L40.108968,1909.9997 C40.84223,1908.83808 41.6880158,1907.76533 42.6460404,1906.78248 C43.6549838,1905.74739 44.7733043,1904.84737 45.9994788,1904.08282 L45.9994788,1879.91718 C44.7733043,1879.15263 43.6549838,1878.25261 42.6460404,1877.21752 C41.6882922,1876.23495 40.8427179,1875.16254 40.1096026,1874.0013 Z" id="Mask" fill-opacity="0.8" fill="#F0F0F0"></path>
        <path d="M27.2517948,1920 C28.0270552,1921.40719 28.96819,1922.67785 30.0758056,1923.81417 C31.2230757,1924.99117 32.5300817,1925.97246 34,1926.75888 L34,1953.24112 C32.5300817,1954.02754 31.2230757,1955.00883 30.0758056,1956.18583 C28.96819,1957.32215 28.0270552,1958.59281 27.2517948,1960 L27.2517948,1960 L-7.25179475,1960 C-8.02705515,1958.59281 -8.96818998,1957.32215 -10.0758056,1956.18583 C-11.2230757,1955.00883 -12.5300817,1954.02754 -14,1953.24112 L-14,1926.75888 C-12.5300817,1925.97246 -11.2230757,1924.99117 -10.0758056,1923.81417 C-8.96818998,1922.67785 -8.02705515,1921.40719 -7.25179475,1920 L-7.25179475,1920 L27.2517948,1920 Z M26.1096026,1922.0013 L-6.10960256,1922.0013 C-6.84271793,1923.16254 -7.68829216,1924.23495 -8.64604043,1925.21752 C-9.65470877,1926.25232 -10.7726947,1927.15214 -11.9984763,1927.91656 L-11.9984763,1952.08344 C-10.7726947,1952.84786 -9.65470877,1953.74768 -8.64604043,1954.78248 C-7.68801583,1955.76533 -6.84223002,1956.83808 -6.10896804,1957.9997 L26.108968,1957.9997 C26.84223,1956.83808 27.6880158,1955.76533 28.6460404,1954.78248 C29.6549838,1953.74739 30.7733043,1952.84737 31.9994788,1952.08282 L31.9994788,1927.91718 C30.7733043,1927.15263 29.6549838,1926.25261 28.6460404,1925.21752 C27.6882922,1924.23495 26.8427179,1923.16254 26.1096026,1922.0013 Z" id="Mask" fill-opacity="0.8" fill="#F0F0F0"></path>
        <path d="M1.25179475,1968 C2.02705515,1969.40719 2.96818998,1970.67785 4.07580561,1971.81417 C5.22307567,1972.99117 6.53008174,1973.97246 8,1974.75888 L8,2001.24112 C6.53008174,2002.02754 5.22307567,2003.00883 4.07580561,2004.18583 C2.96818998,2005.32215 2.02705515,2006.59281 1.25179475,2008 L1.25179475,2008 L-33.2517948,2008 C-34.0270552,2006.59281 -34.96819,2005.32215 -36.0758056,2004.18583 C-37.2230757,2003.00883 -38.5300817,2002.02754 -40,2001.24112 L-40,1974.75888 C-38.5300817,1973.97246 -37.2230757,1972.99117 -36.0758056,1971.81417 C-34.96819,1970.67785 -34.0270552,1969.40719 -33.2517948,1968 L-33.2517948,1968 L1.25179475,1968 Z M0.109602563,1970.0013 L-32.1096026,1970.0013 C-32.8427179,1971.16254 -33.6882922,1972.23495 -34.6460404,1973.21752 C-35.6547088,1974.25232 -36.7726947,1975.15214 -37.9984763,1975.91656 L-37.9984763,2000.08344 C-36.7726947,2000.84786 -35.6547088,2001.74768 -34.6460404,2002.78248 C-33.6880158,2003.76533 -32.84223,2004.83808 -32.108968,2005.9997 L0.108968043,2005.9997 C0.842230019,2004.83808 1.68801583,2003.76533 2.64604043,2002.78248 C3.65498376,2001.74739 4.77330428,2000.84737 5.99947882,2000.08282 L5.99947882,1975.91718 C4.77330428,1975.15263 3.65498376,1974.25261 2.64604043,1973.21752 C1.68829216,1972.23495 0.842717935,1971.16254 0.109602563,1970.0013 Z" id="Mask" fill-opacity="0.8" fill="#F0F0F0"></path>
        <g id="shape" transform="translate(0.000000, 144.000000)" fill="#99834A" fill-rule="nonzero">
            <path d="M41.2517948,0 C42.0270552,1.40718652 42.96819,2.67785361 44.0758056,3.81417207 C45.2230757,4.99117257 46.5300817,5.97246269 48,6.75887903 L48,41.241121 C46.5300817,42.0275373 45.2230757,43.0088274 44.0758056,44.1858279 C42.96819,45.3221464 42.0270552,46.5928135 41.2517948,48 L41.2517948,48 L6.74820525,48 C5.97294485,46.5928135 5.03181002,45.3221464 3.92419439,44.1858279 C2.77692433,43.0088274 1.46991826,42.0275373 -1.31450406e-13,41.241121 L-1.31450406e-13,6.75887903 C1.46991826,5.97246269 2.77692433,4.99117257 3.92419439,3.81417207 C5.03181002,2.67785361 5.97294485,1.40718652 6.74820525,0 L6.74820525,0 L41.2517948,0 Z M40.1096026,2.00130371 L7.89039744,2.00130371 C7.15728207,3.16253853 6.31170784,4.23494945 5.35395957,5.21751689 C4.34529123,6.25232393 3.22730532,7.15213769 2.00152375,7.91655729 L2.00152375,40.0834427 C3.22730532,40.8478623 4.34529123,41.7476761 5.35395957,42.7824831 C6.31198417,43.765334 7.15776998,44.8380803 7.89103196,45.9997014 L40.108968,45.9997014 C40.84223,44.8380803 41.6880158,43.765334 42.6460404,42.7824831 C43.6549838,41.747394 44.7733043,40.8473717 45.9994788,40.0828175 L45.9994788,7.91718246 C44.7733043,7.1526283 43.6549838,6.25260605 42.6460404,5.21751689 C41.6882922,4.23494945 40.8427179,3.16253853 40.1096026,2.00130371 Z" id="path-1"></path>
        </g>
        <g id="shape" transform="translate(-24.000000, 192.000000)">
            <mask id="mask-4" fill="white">
                <use xlink:href="#path-3"></use>
            </mask>
            <use id="path-1" fill="#99834A" fill-rule="nonzero" xlink:href="#path-3"></use>
        </g>
        <path d="M41.2517948,2160 C42.0270552,2161.40719 42.96819,2162.67785 44.0758056,2163.81417 C45.2230757,2164.99117 46.5300817,2165.97246 48,2166.75888 L48,2193.24112 C46.5300817,2194.02754 45.2230757,2195.00883 44.0758056,2196.18583 C42.96819,2197.32215 42.0270552,2198.59281 41.2517948,2200 L41.2517948,2200 L6.74820525,2200 C5.97294485,2198.59281 5.03181002,2197.32215 3.92419439,2196.18583 C2.77692433,2195.00883 1.46991826,2194.02754 -1.31450406e-13,2193.24112 L-1.31450406e-13,2166.75888 C1.46991826,2165.97246 2.77692433,2164.99117 3.92419439,2163.81417 C5.03181002,2162.67785 5.97294485,2161.40719 6.74820525,2160 L6.74820525,2160 L41.2517948,2160 Z M40.1096026,2162.0013 L7.89039744,2162.0013 C7.15728207,2163.16254 6.31170784,2164.23495 5.35395957,2165.21752 C4.34529123,2166.25232 3.22730532,2167.15214 2.00152375,2167.91656 L2.00152375,2192.08344 C3.22730532,2192.84786 4.34529123,2193.74768 5.35395957,2194.78248 C6.31198417,2195.76533 7.15776998,2196.83808 7.89103196,2197.9997 L40.108968,2197.9997 C40.84223,2196.83808 41.6880158,2195.76533 42.6460404,2194.78248 C43.6549838,2193.74739 44.7733043,2192.84737 45.9994788,2192.08282 L45.9994788,2167.91718 C44.7733043,2167.15263 43.6549838,2166.25261 42.6460404,2165.21752 C41.6882922,2164.23495 40.8427179,2163.16254 40.1096026,2162.0013 Z" id="Mask" fill-opacity="0.4" fill="#C8C8C8"></path>
        <path d="M27.2517948,2208 C28.0270552,2209.40719 28.96819,2210.67785 30.0758056,2211.81417 C31.2230757,2212.99117 32.5300817,2213.97246 34,2214.75888 L34,2241.24112 C32.5300817,2242.02754 31.2230757,2243.00883 30.0758056,2244.18583 C28.96819,2245.32215 28.0270552,2246.59281 27.2517948,2248 L27.2517948,2248 L-7.25179475,2248 C-8.02705515,2246.59281 -8.96818998,2245.32215 -10.0758056,2244.18583 C-11.2230757,2243.00883 -12.5300817,2242.02754 -14,2241.24112 L-14,2214.75888 C-12.5300817,2213.97246 -11.2230757,2212.99117 -10.0758056,2211.81417 C-8.96818998,2210.67785 -8.02705515,2209.40719 -7.25179475,2208 L-7.25179475,2208 L27.2517948,2208 Z M26.1096026,2210.0013 L-6.10960256,2210.0013 C-6.84271793,2211.16254 -7.68829216,2212.23495 -8.64604043,2213.21752 C-9.65470877,2214.25232 -10.7726947,2215.15214 -11.9984763,2215.91656 L-11.9984763,2240.08344 C-10.7726947,2240.84786 -9.65470877,2241.74768 -8.64604043,2242.78248 C-7.68801583,2243.76533 -6.84223002,2244.83808 -6.10896804,2245.9997 L26.108968,2245.9997 C26.84223,2244.83808 27.6880158,2243.76533 28.6460404,2242.78248 C29.6549838,2241.74739 30.7733043,2240.84737 31.9994788,2240.08282 L31.9994788,2215.91718 C30.7733043,2215.15263 29.6549838,2214.25261 28.6460404,2213.21752 C27.6882922,2212.23495 26.8427179,2211.16254 26.1096026,2210.0013 Z" id="Mask" fill-opacity="0.4" fill="#C8C8C8"></path>
        <path d="M1.25179475,2256 C2.02705515,2257.40719 2.96818998,2258.67785 4.07580561,2259.81417 C5.22307567,2260.99117 6.53008174,2261.97246 8,2262.75888 L8,2289.24112 C6.53008174,2290.02754 5.22307567,2291.00883 4.07580561,2292.18583 C2.96818998,2293.32215 2.02705515,2294.59281 1.25179475,2296 L1.25179475,2296 L-33.2517948,2296 C-34.0270552,2294.59281 -34.96819,2293.32215 -36.0758056,2292.18583 C-37.2230757,2291.00883 -38.5300817,2290.02754 -40,2289.24112 L-40,2262.75888 C-38.5300817,2261.97246 -37.2230757,2260.99117 -36.0758056,2259.81417 C-34.96819,2258.67785 -34.0270552,2257.40719 -33.2517948,2256 L-33.2517948,2256 L1.25179475,2256 Z M0.109602563,2258.0013 L-32.1096026,2258.0013 C-32.8427179,2259.16254 -33.6882922,2260.23495 -34.6460404,2261.21752 C-35.6547088,2262.25232 -36.7726947,2263.15214 -37.9984763,2263.91656 L-37.9984763,2288.08344 C-36.7726947,2288.84786 -35.6547088,2289.74768 -34.6460404,2290.78248 C-33.6880158,2291.76533 -32.84223,2292.83808 -32.108968,2293.9997 L0.108968043,2293.9997 C0.842230019,2292.83808 1.68801583,2291.76533 2.64604043,2290.78248 C3.65498376,2289.74739 4.77330428,2288.84737 5.99947882,2288.08282 L5.99947882,2263.91718 C4.77330428,2263.15263 3.65498376,2262.25261 2.64604043,2261.21752 C1.68829216,2260.23495 0.842717935,2259.16254 0.109602563,2258.0013 Z" id="Mask" fill-opacity="0.4" fill="#C8C8C8"></path>
        <g id="shape" transform="translate(-40.000000, 240.000000)" fill="#99834A" fill-rule="nonzero">
            <path d="M41.2517948,0 C42.0270552,1.40718652 42.96819,2.67785361 44.0758056,3.81417207 C45.2230757,4.99117257 46.5300817,5.97246269 48,6.75887903 L48,41.241121 C46.5300817,42.0275373 45.2230757,43.0088274 44.0758056,44.1858279 C42.96819,45.3221464 42.0270552,46.5928135 41.2517948,48 L41.2517948,48 L6.74820525,48 C5.97294485,46.5928135 5.03181002,45.3221464 3.92419439,44.1858279 C2.77692433,43.0088274 1.46991826,42.0275373 -1.31450406e-13,41.241121 L-1.31450406e-13,6.75887903 C1.46991826,5.97246269 2.77692433,4.99117257 3.92419439,3.81417207 C5.03181002,2.67785361 5.97294485,1.40718652 6.74820525,0 L6.74820525,0 L41.2517948,0 Z M40.1096026,2.00130371 L7.89039744,2.00130371 C7.15728207,3.16253853 6.31170784,4.23494945 5.35395957,5.21751689 C4.34529123,6.25232393 3.22730532,7.15213769 2.00152375,7.91655729 L2.00152375,40.0834427 C3.22730532,40.8478623 4.34529123,41.7476761 5.35395957,42.7824831 C6.31198417,43.765334 7.15776998,44.8380803 7.89103196,45.9997014 L40.108968,45.9997014 C40.84223,44.8380803 41.6880158,43.765334 42.6460404,42.7824831 C43.6549838,41.747394 44.7733043,40.8473717 45.9994788,40.0828175 L45.9994788,7.91718246 C44.7733043,7.1526283 43.6549838,6.25260605 42.6460404,5.21751689 C41.6882922,4.23494945 40.8427179,3.16253853 40.1096026,2.00130371 Z" id="path-1"></path>
        </g>
        <path d="M41.2517948,2016 C42.0270552,2017.40719 42.96819,2018.67785 44.0758056,2019.81417 C45.2230757,2020.99117 46.5300817,2021.97246 48,2022.75888 L48,2049.24112 C46.5300817,2050.02754 45.2230757,2051.00883 44.0758056,2052.18583 C42.96819,2053.32215 42.0270552,2054.59281 41.2517948,2056 L41.2517948,2056 L6.74820525,2056 C5.97294485,2054.59281 5.03181002,2053.32215 3.92419439,2052.18583 C2.77692433,2051.00883 1.46991826,2050.02754 -1.31450406e-13,2049.24112 L-1.31450406e-13,2022.75888 C1.46991826,2021.97246 2.77692433,2020.99117 3.92419439,2019.81417 C5.03181002,2018.67785 5.97294485,2017.40719 6.74820525,2016 L6.74820525,2016 L41.2517948,2016 Z M40.1096026,2018.0013 L7.89039744,2018.0013 C7.15728207,2019.16254 6.31170784,2020.23495 5.35395957,2021.21752 C4.34529123,2022.25232 3.22730532,2023.15214 2.00152375,2023.91656 L2.00152375,2048.08344 C3.22730532,2048.84786 4.34529123,2049.74768 5.35395957,2050.78248 C6.31198417,2051.76533 7.15776998,2052.83808 7.89103196,2053.9997 L40.108968,2053.9997 C40.84223,2052.83808 41.6880158,2051.76533 42.6460404,2050.78248 C43.6549838,2049.74739 44.7733043,2048.84737 45.9994788,2048.08282 L45.9994788,2023.91718 C44.7733043,2023.15263 43.6549838,2022.25261 42.6460404,2021.21752 C41.6882922,2020.23495 40.8427179,2019.16254 40.1096026,2018.0013 Z" id="Mask" fill="#FFFFFF"></path>
        <path d="M27.2517948,2064 C28.0270552,2065.40719 28.96819,2066.67785 30.0758056,2067.81417 C31.2230757,2068.99117 32.5300817,2069.97246 34,2070.75888 L34,2097.24112 C32.5300817,2098.02754 31.2230757,2099.00883 30.0758056,2100.18583 C28.96819,2101.32215 28.0270552,2102.59281 27.2517948,2104 L27.2517948,2104 L-7.25179475,2104 C-8.02705515,2102.59281 -8.96818998,2101.32215 -10.0758056,2100.18583 C-11.2230757,2099.00883 -12.5300817,2098.02754 -14,2097.24112 L-14,2070.75888 C-12.5300817,2069.97246 -11.2230757,2068.99117 -10.0758056,2067.81417 C-8.96818998,2066.67785 -8.02705515,2065.40719 -7.25179475,2064 L-7.25179475,2064 L27.2517948,2064 Z M26.1096026,2066.0013 L-6.10960256,2066.0013 C-6.84271793,2067.16254 -7.68829216,2068.23495 -8.64604043,2069.21752 C-9.65470877,2070.25232 -10.7726947,2071.15214 -11.9984763,2071.91656 L-11.9984763,2096.08344 C-10.7726947,2096.84786 -9.65470877,2097.74768 -8.64604043,2098.78248 C-7.68801583,2099.76533 -6.84223002,2100.83808 -6.10896804,2101.9997 L26.108968,2101.9997 C26.84223,2100.83808 27.6880158,2099.76533 28.6460404,2098.78248 C29.6549838,2097.74739 30.7733043,2096.84737 31.9994788,2096.08282 L31.9994788,2071.91718 C30.7733043,2071.15263 29.6549838,2070.25261 28.6460404,2069.21752 C27.6882922,2068.23495 26.8427179,2067.16254 26.1096026,2066.0013 Z" id="Mask" fill="#FFFFFF"></path>
        <path d="M1.25179475,2112 C2.02705515,2113.40719 2.96818998,2114.67785 4.07580561,2115.81417 C5.22307567,2116.99117 6.53008174,2117.97246 8,2118.75888 L8,2145.24112 C6.53008174,2146.02754 5.22307567,2147.00883 4.07580561,2148.18583 C2.96818998,2149.32215 2.02705515,2150.59281 1.25179475,2152 L1.25179475,2152 L-33.2517948,2152 C-34.0270552,2150.59281 -34.96819,2149.32215 -36.0758056,2148.18583 C-37.2230757,2147.00883 -38.5300817,2146.02754 -40,2145.24112 L-40,2118.75888 C-38.5300817,2117.97246 -37.2230757,2116.99117 -36.0758056,2115.81417 C-34.96819,2114.67785 -34.0270552,2113.40719 -33.2517948,2112 L-33.2517948,2112 L1.25179475,2112 Z M0.109602563,2114.0013 L-32.1096026,2114.0013 C-32.8427179,2115.16254 -33.6882922,2116.23495 -34.6460404,2117.21752 C-35.6547088,2118.25232 -36.7726947,2119.15214 -37.9984763,2119.91656 L-37.9984763,2144.08344 C-36.7726947,2144.84786 -35.6547088,2145.74768 -34.6460404,2146.78248 C-33.6880158,2147.76533 -32.84223,2148.83808 -32.108968,2149.9997 L0.108968043,2149.9997 C0.842230019,2148.83808 1.68801583,2147.76533 2.64604043,2146.78248 C3.65498376,2145.74739 4.77330428,2144.84737 5.99947882,2144.08282 L5.99947882,2119.91718 C4.77330428,2119.15263 3.65498376,2118.25261 2.64604043,2117.21752 C1.68829216,2116.23495 0.842717935,2115.16254 0.109602563,2114.0013 Z" id="Mask" fill="#FFFFFF"></path>
        <g id="shape" transform="translate(0.000000, 288.000000)" fill="#C8C8C8" fill-rule="nonzero">
            <path d="M41.2517948,0 C42.0270552,1.40718652 42.96819,2.67785361 44.0758056,3.81417207 C45.2230757,4.99117257 46.5300817,5.97246269 48,6.75887903 L48,41.241121 C46.5300817,42.0275373 45.2230757,43.0088274 44.0758056,44.1858279 C42.96819,45.3221464 42.0270552,46.5928135 41.2517948,48 L41.2517948,48 L6.74820525,48 C5.97294485,46.5928135 5.03181002,45.3221464 3.92419439,44.1858279 C2.77692433,43.0088274 1.46991826,42.0275373 -1.31450406e-13,41.241121 L-1.31450406e-13,6.75887903 C1.46991826,5.97246269 2.77692433,4.99117257 3.92419439,3.81417207 C5.03181002,2.67785361 5.97294485,1.40718652 6.74820525,0 L6.74820525,0 L41.2517948,0 Z M40.1096026,2.00130371 L7.89039744,2.00130371 C7.15728207,3.16253853 6.31170784,4.23494945 5.35395957,5.21751689 C4.34529123,6.25232393 3.22730532,7.15213769 2.00152375,7.91655729 L2.00152375,40.0834427 C3.22730532,40.8478623 4.34529123,41.7476761 5.35395957,42.7824831 C6.31198417,43.765334 7.15776998,44.8380803 7.89103196,45.9997014 L40.108968,45.9997014 C40.84223,44.8380803 41.6880158,43.765334 42.6460404,42.7824831 C43.6549838,41.747394 44.7733043,40.8473717 45.9994788,40.0828175 L45.9994788,7.91718246 C44.7733043,7.1526283 43.6549838,6.25260605 42.6460404,5.21751689 C41.6882922,4.23494945 40.8427179,3.16253853 40.1096026,2.00130371 Z" id="path-1"></path>
        </g>
        <g id="shape" transform="translate(-24.000000, 336.000000)" fill="#C8C8C8" fill-rule="nonzero">
            <path d="M41.2517948,0 C42.0270552,1.40718652 42.96819,2.67785361 44.0758056,3.81417207 C45.2230757,4.99117257 46.5300817,5.97246269 48,6.75887903 L48,41.241121 C46.5300817,42.0275373 45.2230757,43.0088274 44.0758056,44.1858279 C42.96819,45.3221464 42.0270552,46.5928135 41.2517948,48 L41.2517948,48 L6.74820525,48 C5.97294485,46.5928135 5.03181002,45.3221464 3.92419439,44.1858279 C2.77692433,43.0088274 1.46991826,42.0275373 -1.31450406e-13,41.241121 L-1.31450406e-13,6.75887903 C1.46991826,5.97246269 2.77692433,4.99117257 3.92419439,3.81417207 C5.03181002,2.67785361 5.97294485,1.40718652 6.74820525,0 L6.74820525,0 L41.2517948,0 Z M40.1096026,2.00130371 L7.89039744,2.00130371 C7.15728207,3.16253853 6.31170784,4.23494945 5.35395957,5.21751689 C4.34529123,6.25232393 3.22730532,7.15213769 2.00152375,7.91655729 L2.00152375,40.0834427 C3.22730532,40.8478623 4.34529123,41.7476761 5.35395957,42.7824831 C6.31198417,43.765334 7.15776998,44.8380803 7.89103196,45.9997014 L40.108968,45.9997014 C40.84223,44.8380803 41.6880158,43.765334 42.6460404,42.7824831 C43.6549838,41.747394 44.7733043,40.8473717 45.9994788,40.0828175 L45.9994788,7.91718246 C44.7733043,7.1526283 43.6549838,6.25260605 42.6460404,5.21751689 C41.6882922,4.23494945 40.8427179,3.16253853 40.1096026,2.00130371 Z" id="path-1"></path>
        </g>
        <g id="shape" transform="translate(-40.000000, 384.000000)" fill="#C8C8C8" fill-rule="nonzero">
            <path d="M41.2517948,0 C42.0270552,1.40718652 42.96819,2.67785361 44.0758056,3.81417207 C45.2230757,4.99117257 46.5300817,5.97246269 48,6.75887903 L48,41.241121 C46.5300817,42.0275373 45.2230757,43.0088274 44.0758056,44.1858279 C42.96819,45.3221464 42.0270552,46.5928135 41.2517948,48 L41.2517948,48 L6.74820525,48 C5.97294485,46.5928135 5.03181002,45.3221464 3.92419439,44.1858279 C2.77692433,43.0088274 1.46991826,42.0275373 -1.31450406e-13,41.241121 L-1.31450406e-13,6.75887903 C1.46991826,5.97246269 2.77692433,4.99117257 3.92419439,3.81417207 C5.03181002,2.67785361 5.97294485,1.40718652 6.74820525,0 L6.74820525,0 L41.2517948,0 Z M40.1096026,2.00130371 L7.89039744,2.00130371 C7.15728207,3.16253853 6.31170784,4.23494945 5.35395957,5.21751689 C4.34529123,6.25232393 3.22730532,7.15213769 2.00152375,7.91655729 L2.00152375,40.0834427 C3.22730532,40.8478623 4.34529123,41.7476761 5.35395957,42.7824831 C6.31198417,43.765334 7.15776998,44.8380803 7.89103196,45.9997014 L40.108968,45.9997014 C40.84223,44.8380803 41.6880158,43.765334 42.6460404,42.7824831 C43.6549838,41.747394 44.7733043,40.8473717 45.9994788,40.0828175 L45.9994788,7.91718246 C44.7733043,7.1526283 43.6549838,6.25260605 42.6460404,5.21751689 C41.6882922,4.23494945 40.8427179,3.16253853 40.1096026,2.00130371 Z" id="path-1"></path>
        </g>
        <path d="M41.2517948,2448 C42.0270552,2449.40719 42.96819,2450.67785 44.0758056,2451.81417 C45.2230757,2452.99117 46.5300817,2453.97246 48,2454.75888 L48,2481.24112 C46.5300817,2482.02754 45.2230757,2483.00883 44.0758056,2484.18583 C42.96819,2485.32215 42.0270552,2486.59281 41.2517948,2488 L41.2517948,2488 L6.74820525,2488 C5.97294485,2486.59281 5.03181002,2485.32215 3.92419439,2484.18583 C2.77692433,2483.00883 1.46991826,2482.02754 -1.31450406e-13,2481.24112 L-1.31450406e-13,2454.75888 C1.46991826,2453.97246 2.77692433,2452.99117 3.92419439,2451.81417 C5.03181002,2450.67785 5.97294485,2449.40719 6.74820525,2448 L6.74820525,2448 L41.2517948,2448 Z M40.1096026,2450.0013 L7.89039744,2450.0013 C7.15728207,2451.16254 6.31170784,2452.23495 5.35395957,2453.21752 C4.34529123,2454.25232 3.22730532,2455.15214 2.00152375,2455.91656 L2.00152375,2480.08344 C3.22730532,2480.84786 4.34529123,2481.74768 5.35395957,2482.78248 C6.31198417,2483.76533 7.15776998,2484.83808 7.89103196,2485.9997 L40.108968,2485.9997 C40.84223,2484.83808 41.6880158,2483.76533 42.6460404,2482.78248 C43.6549838,2481.74739 44.7733043,2480.84737 45.9994788,2480.08282 L45.9994788,2455.91718 C44.7733043,2455.15263 43.6549838,2454.25261 42.6460404,2453.21752 C41.6882922,2452.23495 40.8427179,2451.16254 40.1096026,2450.0013 Z" id="Mask" fill="#404040"></path>
        <path d="M27.2517948,2496 C28.0270552,2497.40719 28.96819,2498.67785 30.0758056,2499.81417 C31.2230757,2500.99117 32.5300817,2501.97246 34,2502.75888 L34,2529.24112 C32.5300817,2530.02754 31.2230757,2531.00883 30.0758056,2532.18583 C28.96819,2533.32215 28.0270552,2534.59281 27.2517948,2536 L27.2517948,2536 L-7.25179475,2536 C-8.02705515,2534.59281 -8.96818998,2533.32215 -10.0758056,2532.18583 C-11.2230757,2531.00883 -12.5300817,2530.02754 -14,2529.24112 L-14,2502.75888 C-12.5300817,2501.97246 -11.2230757,2500.99117 -10.0758056,2499.81417 C-8.96818998,2498.67785 -8.02705515,2497.40719 -7.25179475,2496 L-7.25179475,2496 L27.2517948,2496 Z M26.1096026,2498.0013 L-6.10960256,2498.0013 C-6.84271793,2499.16254 -7.68829216,2500.23495 -8.64604043,2501.21752 C-9.65470877,2502.25232 -10.7726947,2503.15214 -11.9984763,2503.91656 L-11.9984763,2528.08344 C-10.7726947,2528.84786 -9.65470877,2529.74768 -8.64604043,2530.78248 C-7.68801583,2531.76533 -6.84223002,2532.83808 -6.10896804,2533.9997 L26.108968,2533.9997 C26.84223,2532.83808 27.6880158,2531.76533 28.6460404,2530.78248 C29.6549838,2529.74739 30.7733043,2528.84737 31.9994788,2528.08282 L31.9994788,2503.91718 C30.7733043,2503.15263 29.6549838,2502.25261 28.6460404,2501.21752 C27.6882922,2500.23495 26.8427179,2499.16254 26.1096026,2498.0013 Z" id="Mask" fill="#404040"></path>
        <path d="M1.25179475,2544 C2.02705515,2545.40719 2.96818998,2546.67785 4.07580561,2547.81417 C5.22307567,2548.99117 6.53008174,2549.97246 8,2550.75888 L8,2577.24112 C6.53008174,2578.02754 5.22307567,2579.00883 4.07580561,2580.18583 C2.96818998,2581.32215 2.02705515,2582.59281 1.25179475,2584 L1.25179475,2584 L-33.2517948,2584 C-34.0270552,2582.59281 -34.96819,2581.32215 -36.0758056,2580.18583 C-37.2230757,2579.00883 -38.5300817,2578.02754 -40,2577.24112 L-40,2550.75888 C-38.5300817,2549.97246 -37.2230757,2548.99117 -36.0758056,2547.81417 C-34.96819,2546.67785 -34.0270552,2545.40719 -33.2517948,2544 L-33.2517948,2544 L1.25179475,2544 Z M0.109602563,2546.0013 L-32.1096026,2546.0013 C-32.8427179,2547.16254 -33.6882922,2548.23495 -34.6460404,2549.21752 C-35.6547088,2550.25232 -36.7726947,2551.15214 -37.9984763,2551.91656 L-37.9984763,2576.08344 C-36.7726947,2576.84786 -35.6547088,2577.74768 -34.6460404,2578.78248 C-33.6880158,2579.76533 -32.84223,2580.83808 -32.108968,2581.9997 L0.108968043,2581.9997 C0.842230019,2580.83808 1.68801583,2579.76533 2.64604043,2578.78248 C3.65498376,2577.74739 4.77330428,2576.84737 5.99947882,2576.08282 L5.99947882,2551.91718 C4.77330428,2551.15263 3.65498376,2550.25261 2.64604043,2549.21752 C1.68829216,2548.23495 0.842717935,2547.16254 0.109602563,2546.0013 Z" id="Mask" fill="#404040"></path>
        <path d="M41.2517948,2304 C42.0270552,2305.40719 42.96819,2306.67785 44.0758056,2307.81417 C45.2230757,2308.99117 46.5300817,2309.97246 48,2310.75888 L48,2337.24112 C46.5300817,2338.02754 45.2230757,2339.00883 44.0758056,2340.18583 C42.96819,2341.32215 42.0270552,2342.59281 41.2517948,2344 L41.2517948,2344 L6.74820525,2344 C5.97294485,2342.59281 5.03181002,2341.32215 3.92419439,2340.18583 C2.77692433,2339.00883 1.46991826,2338.02754 -1.31450406e-13,2337.24112 L-1.31450406e-13,2310.75888 C1.46991826,2309.97246 2.77692433,2308.99117 3.92419439,2307.81417 C5.03181002,2306.67785 5.97294485,2305.40719 6.74820525,2304 L6.74820525,2304 L41.2517948,2304 Z M40.1096026,2306.0013 L7.89039744,2306.0013 C7.15728207,2307.16254 6.31170784,2308.23495 5.35395957,2309.21752 C4.34529123,2310.25232 3.22730532,2311.15214 2.00152375,2311.91656 L2.00152375,2336.08344 C3.22730532,2336.84786 4.34529123,2337.74768 5.35395957,2338.78248 C6.31198417,2339.76533 7.15776998,2340.83808 7.89103196,2341.9997 L40.108968,2341.9997 C40.84223,2340.83808 41.6880158,2339.76533 42.6460404,2338.78248 C43.6549838,2337.74739 44.7733043,2336.84737 45.9994788,2336.08282 L45.9994788,2311.91718 C44.7733043,2311.15263 43.6549838,2310.25261 42.6460404,2309.21752 C41.6882922,2308.23495 40.8427179,2307.16254 40.1096026,2306.0013 Z" id="Mask" fill="#606060"></path>
        <path d="M27.2517948,2352 C28.0270552,2353.40719 28.96819,2354.67785 30.0758056,2355.81417 C31.2230757,2356.99117 32.5300817,2357.97246 34,2358.75888 L34,2385.24112 C32.5300817,2386.02754 31.2230757,2387.00883 30.0758056,2388.18583 C28.96819,2389.32215 28.0270552,2390.59281 27.2517948,2392 L27.2517948,2392 L-7.25179475,2392 C-8.02705515,2390.59281 -8.96818998,2389.32215 -10.0758056,2388.18583 C-11.2230757,2387.00883 -12.5300817,2386.02754 -14,2385.24112 L-14,2358.75888 C-12.5300817,2357.97246 -11.2230757,2356.99117 -10.0758056,2355.81417 C-8.96818998,2354.67785 -8.02705515,2353.40719 -7.25179475,2352 L-7.25179475,2352 L27.2517948,2352 Z M26.1096026,2354.0013 L-6.10960256,2354.0013 C-6.84271793,2355.16254 -7.68829216,2356.23495 -8.64604043,2357.21752 C-9.65470877,2358.25232 -10.7726947,2359.15214 -11.9984763,2359.91656 L-11.9984763,2384.08344 C-10.7726947,2384.84786 -9.65470877,2385.74768 -8.64604043,2386.78248 C-7.68801583,2387.76533 -6.84223002,2388.83808 -6.10896804,2389.9997 L26.108968,2389.9997 C26.84223,2388.83808 27.6880158,2387.76533 28.6460404,2386.78248 C29.6549838,2385.74739 30.7733043,2384.84737 31.9994788,2384.08282 L31.9994788,2359.91718 C30.7733043,2359.15263 29.6549838,2358.25261 28.6460404,2357.21752 C27.6882922,2356.23495 26.8427179,2355.16254 26.1096026,2354.0013 Z" id="Mask" fill="#606060"></path>
        <path d="M1.25179475,2400 C2.02705515,2401.40719 2.96818998,2402.67785 4.07580561,2403.81417 C5.22307567,2404.99117 6.53008174,2405.97246 8,2406.75888 L8,2433.24112 C6.53008174,2434.02754 5.22307567,2435.00883 4.07580561,2436.18583 C2.96818998,2437.32215 2.02705515,2438.59281 1.25179475,2440 L1.25179475,2440 L-33.2517948,2440 C-34.0270552,2438.59281 -34.96819,2437.32215 -36.0758056,2436.18583 C-37.2230757,2435.00883 -38.5300817,2434.02754 -40,2433.24112 L-40,2406.75888 C-38.5300817,2405.97246 -37.2230757,2404.99117 -36.0758056,2403.81417 C-34.96819,2402.67785 -34.0270552,2401.40719 -33.2517948,2400 L-33.2517948,2400 L1.25179475,2400 Z M0.109602563,2402.0013 L-32.1096026,2402.0013 C-32.8427179,2403.16254 -33.6882922,2404.23495 -34.6460404,2405.21752 C-35.6547088,2406.25232 -36.7726947,2407.15214 -37.9984763,2407.91656 L-37.9984763,2432.08344 C-36.7726947,2432.84786 -35.6547088,2433.74768 -34.6460404,2434.78248 C-33.6880158,2435.76533 -32.84223,2436.83808 -32.108968,2437.9997 L0.108968043,2437.9997 C0.842230019,2436.83808 1.68801583,2435.76533 2.64604043,2434.78248 C3.65498376,2433.74739 4.77330428,2432.84737 5.99947882,2432.08282 L5.99947882,2407.91718 C4.77330428,2407.15263 3.65498376,2406.25261 2.64604043,2405.21752 C1.68829216,2404.23495 0.842717935,2403.16254 0.109602563,2402.0013 Z" id="Mask" fill="#606060"></path>
        <path d="M41.2517948,1584 C42.0270552,1585.40719 42.96819,1586.67785 44.0758056,1587.81417 C45.2230757,1588.99117 46.5300817,1589.97246 48,1590.75888 L48,1617.24112 C46.5300817,1618.02754 45.2230757,1619.00883 44.0758056,1620.18583 C42.96819,1621.32215 42.0270552,1622.59281 41.2517948,1624 L41.2517948,1624 L6.74820525,1624 C5.97294485,1622.59281 5.03181002,1621.32215 3.92419439,1620.18583 C2.77692433,1619.00883 1.46991826,1618.02754 -1.31450406e-13,1617.24112 L-1.31450406e-13,1590.75888 C1.46991826,1589.97246 2.77692433,1588.99117 3.92419439,1587.81417 C5.03181002,1586.67785 5.97294485,1585.40719 6.74820525,1584 L6.74820525,1584 L41.2517948,1584 Z M40.1096026,1586.0013 L7.89039744,1586.0013 C7.15728207,1587.16254 6.31170784,1588.23495 5.35395957,1589.21752 C4.34529123,1590.25232 3.22730532,1591.15214 2.00152375,1591.91656 L2.00152375,1616.08344 C3.22730532,1616.84786 4.34529123,1617.74768 5.35395957,1618.78248 C6.31198417,1619.76533 7.15776998,1620.83808 7.89103196,1621.9997 L40.108968,1621.9997 C40.84223,1620.83808 41.6880158,1619.76533 42.6460404,1618.78248 C43.6549838,1617.74739 44.7733043,1616.84737 45.9994788,1616.08282 L45.9994788,1591.91718 C44.7733043,1591.15263 43.6549838,1590.25261 42.6460404,1589.21752 C41.6882922,1588.23495 40.8427179,1587.16254 40.1096026,1586.0013 Z" id="Mask" fill="#99834A"></path>
        <path d="M27.2517948,1632 C28.0270552,1633.40719 28.96819,1634.67785 30.0758056,1635.81417 C31.2230757,1636.99117 32.5300817,1637.97246 34,1638.75888 L34,1665.24112 C32.5300817,1666.02754 31.2230757,1667.00883 30.0758056,1668.18583 C28.96819,1669.32215 28.0270552,1670.59281 27.2517948,1672 L27.2517948,1672 L-7.25179475,1672 C-8.02705515,1670.59281 -8.96818998,1669.32215 -10.0758056,1668.18583 C-11.2230757,1667.00883 -12.5300817,1666.02754 -14,1665.24112 L-14,1638.75888 C-12.5300817,1637.97246 -11.2230757,1636.99117 -10.0758056,1635.81417 C-8.96818998,1634.67785 -8.02705515,1633.40719 -7.25179475,1632 L-7.25179475,1632 L27.2517948,1632 Z M26.1096026,1634.0013 L-6.10960256,1634.0013 C-6.84271793,1635.16254 -7.68829216,1636.23495 -8.64604043,1637.21752 C-9.65470877,1638.25232 -10.7726947,1639.15214 -11.9984763,1639.91656 L-11.9984763,1664.08344 C-10.7726947,1664.84786 -9.65470877,1665.74768 -8.64604043,1666.78248 C-7.68801583,1667.76533 -6.84223002,1668.83808 -6.10896804,1669.9997 L26.108968,1669.9997 C26.84223,1668.83808 27.6880158,1667.76533 28.6460404,1666.78248 C29.6549838,1665.74739 30.7733043,1664.84737 31.9994788,1664.08282 L31.9994788,1639.91718 C30.7733043,1639.15263 29.6549838,1638.25261 28.6460404,1637.21752 C27.6882922,1636.23495 26.8427179,1635.16254 26.1096026,1634.0013 Z" id="Mask" fill="#99834A"></path>
        <path d="M1.25179475,1680 C2.02705515,1681.40719 2.96818998,1682.67785 4.07580561,1683.81417 C5.22307567,1684.99117 6.53008174,1685.97246 8,1686.75888 L8,1713.24112 C6.53008174,1714.02754 5.22307567,1715.00883 4.07580561,1716.18583 C2.96818998,1717.32215 2.02705515,1718.59281 1.25179475,1720 L1.25179475,1720 L-33.2517948,1720 C-34.0270552,1718.59281 -34.96819,1717.32215 -36.0758056,1716.18583 C-37.2230757,1715.00883 -38.5300817,1714.02754 -40,1713.24112 L-40,1686.75888 C-38.5300817,1685.97246 -37.2230757,1684.99117 -36.0758056,1683.81417 C-34.96819,1682.67785 -34.0270552,1681.40719 -33.2517948,1680 L-33.2517948,1680 L1.25179475,1680 Z M0.109602563,1682.0013 L-32.1096026,1682.0013 C-32.8427179,1683.16254 -33.6882922,1684.23495 -34.6460404,1685.21752 C-35.6547088,1686.25232 -36.7726947,1687.15214 -37.9984763,1687.91656 L-37.9984763,1712.08344 C-36.7726947,1712.84786 -35.6547088,1713.74768 -34.6460404,1714.78248 C-33.6880158,1715.76533 -32.84223,1716.83808 -32.108968,1717.9997 L0.108968043,1717.9997 C0.842230019,1716.83808 1.68801583,1715.76533 2.64604043,1714.78248 C3.65498376,1713.74739 4.77330428,1712.84737 5.99947882,1712.08282 L5.99947882,1687.91718 C4.77330428,1687.15263 3.65498376,1686.25261 2.64604043,1685.21752 C1.68829216,1684.23495 0.842717935,1683.16254 0.109602563,1682.0013 Z" id="Mask" fill="#99834A"></path>
        <path d="M41.2517948,1440 C42.0270552,1441.40719 42.96819,1442.67785 44.0758056,1443.81417 C45.2230757,1444.99117 46.5300817,1445.97246 48,1446.75888 L48,1473.24112 C46.5300817,1474.02754 45.2230757,1475.00883 44.0758056,1476.18583 C42.96819,1477.32215 42.0270552,1478.59281 41.2517948,1480 L41.2517948,1480 L6.74820525,1480 C5.97294485,1478.59281 5.03181002,1477.32215 3.92419439,1476.18583 C2.77692433,1475.00883 1.46991826,1474.02754 -1.31450406e-13,1473.24112 L-1.31450406e-13,1446.75888 C1.46991826,1445.97246 2.77692433,1444.99117 3.92419439,1443.81417 C5.03181002,1442.67785 5.97294485,1441.40719 6.74820525,1440 L6.74820525,1440 L41.2517948,1440 Z M40.1096026,1442.0013 L7.89039744,1442.0013 C7.15728207,1443.16254 6.31170784,1444.23495 5.35395957,1445.21752 C4.34529123,1446.25232 3.22730532,1447.15214 2.00152375,1447.91656 L2.00152375,1472.08344 C3.22730532,1472.84786 4.34529123,1473.74768 5.35395957,1474.78248 C6.31198417,1475.76533 7.15776998,1476.83808 7.89103196,1477.9997 L40.108968,1477.9997 C40.84223,1476.83808 41.6880158,1475.76533 42.6460404,1474.78248 C43.6549838,1473.74739 44.7733043,1472.84737 45.9994788,1472.08282 L45.9994788,1447.91718 C44.7733043,1447.15263 43.6549838,1446.25261 42.6460404,1445.21752 C41.6882922,1444.23495 40.8427179,1443.16254 40.1096026,1442.0013 Z" id="Mask" fill="#B79D59"></path>
        <path d="M27.2517948,1488 C28.0270552,1489.40719 28.96819,1490.67785 30.0758056,1491.81417 C31.2230757,1492.99117 32.5300817,1493.97246 34,1494.75888 L34,1521.24112 C32.5300817,1522.02754 31.2230757,1523.00883 30.0758056,1524.18583 C28.96819,1525.32215 28.0270552,1526.59281 27.2517948,1528 L27.2517948,1528 L-7.25179475,1528 C-8.02705515,1526.59281 -8.96818998,1525.32215 -10.0758056,1524.18583 C-11.2230757,1523.00883 -12.5300817,1522.02754 -14,1521.24112 L-14,1494.75888 C-12.5300817,1493.97246 -11.2230757,1492.99117 -10.0758056,1491.81417 C-8.96818998,1490.67785 -8.02705515,1489.40719 -7.25179475,1488 L-7.25179475,1488 L27.2517948,1488 Z M26.1096026,1490.0013 L-6.10960256,1490.0013 C-6.84271793,1491.16254 -7.68829216,1492.23495 -8.64604043,1493.21752 C-9.65470877,1494.25232 -10.7726947,1495.15214 -11.9984763,1495.91656 L-11.9984763,1520.08344 C-10.7726947,1520.84786 -9.65470877,1521.74768 -8.64604043,1522.78248 C-7.68801583,1523.76533 -6.84223002,1524.83808 -6.10896804,1525.9997 L26.108968,1525.9997 C26.84223,1524.83808 27.6880158,1523.76533 28.6460404,1522.78248 C29.6549838,1521.74739 30.7733043,1520.84737 31.9994788,1520.08282 L31.9994788,1495.91718 C30.7733043,1495.15263 29.6549838,1494.25261 28.6460404,1493.21752 C27.6882922,1492.23495 26.8427179,1491.16254 26.1096026,1490.0013 Z" id="Mask" fill="#B79D59"></path>
        <path d="M1.25179475,1536 C2.02705515,1537.40719 2.96818998,1538.67785 4.07580561,1539.81417 C5.22307567,1540.99117 6.53008174,1541.97246 8,1542.75888 L8,1569.24112 C6.53008174,1570.02754 5.22307567,1571.00883 4.07580561,1572.18583 C2.96818998,1573.32215 2.02705515,1574.59281 1.25179475,1576 L1.25179475,1576 L-33.2517948,1576 C-34.0270552,1574.59281 -34.96819,1573.32215 -36.0758056,1572.18583 C-37.2230757,1571.00883 -38.5300817,1570.02754 -40,1569.24112 L-40,1542.75888 C-38.5300817,1541.97246 -37.2230757,1540.99117 -36.0758056,1539.81417 C-34.96819,1538.67785 -34.0270552,1537.40719 -33.2517948,1536 L-33.2517948,1536 L1.25179475,1536 Z M0.109602563,1538.0013 L-32.1096026,1538.0013 C-32.8427179,1539.16254 -33.6882922,1540.23495 -34.6460404,1541.21752 C-35.6547088,1542.25232 -36.7726947,1543.15214 -37.9984763,1543.91656 L-37.9984763,1568.08344 C-36.7726947,1568.84786 -35.6547088,1569.74768 -34.6460404,1570.78248 C-33.6880158,1571.76533 -32.84223,1572.83808 -32.108968,1573.9997 L0.108968043,1573.9997 C0.842230019,1572.83808 1.68801583,1571.76533 2.64604043,1570.78248 C3.65498376,1569.74739 4.77330428,1568.84737 5.99947882,1568.08282 L5.99947882,1543.91718 C4.77330428,1543.15263 3.65498376,1542.25261 2.64604043,1541.21752 C1.68829216,1540.23495 0.842717935,1539.16254 0.109602563,1538.0013 Z" id="Mask" fill="#B79D59"></path>
        <path d="M41.2517948,432 C42.0270552,433.407187 42.96819,434.677854 44.0758056,435.814172 C45.2230757,436.991173 46.5300817,437.972463 48,438.758879 L48,473.241121 C46.5300817,474.027537 45.2230757,475.008827 44.0758056,476.185828 C42.96819,477.322146 42.0270552,478.592813 41.2517948,480 L41.2517948,480 L6.74820525,480 C5.97294485,478.592813 5.03181002,477.322146 3.92419439,476.185828 C2.77692433,475.008827 1.46991826,474.027537 -7.10542736e-15,473.241121 L-7.10542736e-15,438.758879 C1.46991826,437.972463 2.77692433,436.991173 3.92419439,435.814172 C5.03181002,434.677854 5.97294485,433.407187 6.74820525,432 L6.74820525,432 L41.2517948,432 Z M40.1096026,434.001304 L7.89039744,434.001304 C7.15728207,435.162539 6.31170784,436.234949 5.35395957,437.217517 C4.34529123,438.252324 3.22730532,439.152138 2.00152375,439.916557 L2.00152375,472.083443 C3.22730532,472.847862 4.34529123,473.747676 5.35395957,474.782483 C6.31198417,475.765334 7.15776998,476.83808 7.89103196,477.999701 L40.108968,477.999701 C40.84223,476.83808 41.6880158,475.765334 42.6460404,474.782483 C43.6549838,473.747394 44.7733043,472.847372 45.9994788,472.082817 L45.9994788,439.917182 C44.7733043,439.152628 43.6549838,438.252606 42.6460404,437.217517 C41.6882922,436.234949 40.8427179,435.162539 40.1096026,434.001304 Z" id="path-1" fill-opacity="0.8" fill="#F0F0F0" fill-rule="nonzero"></path>
        <path d="M17.2517948,480 C18.0270552,481.407187 18.96819,482.677854 20.0758056,483.814172 C21.2230757,484.991173 22.5300817,485.972463 24,486.758879 L24,521.241121 C22.5300817,522.027537 21.2230757,523.008827 20.0758056,524.185828 C18.96819,525.322146 18.0270552,526.592814 17.2517948,528 L17.2517948,528 L-17.2517947,528 C-18.0270551,526.592814 -18.96819,525.322146 -20.0758056,524.185828 C-21.2230757,523.008827 -22.5300817,522.027537 -24,521.241121 L-24,486.758879 C-22.5300817,485.972463 -21.2230757,484.991173 -20.0758056,483.814172 C-18.96819,482.677854 -18.0270551,481.407187 -17.2517947,480 L-17.2517947,480 L17.2517948,480 Z M16.1096026,482.001304 L-16.1096026,482.001304 C-16.8427179,483.162539 -17.6882922,484.234949 -18.6460404,485.217517 C-19.6547088,486.252324 -20.7726947,487.152138 -21.9984762,487.916557 L-21.9984762,520.083443 C-20.7726947,520.847862 -19.6547088,521.747676 -18.6460404,522.782483 C-17.6880158,523.765334 -16.84223,524.83808 -16.108968,525.999701 L16.108968,525.999701 C16.84223,524.83808 17.6880158,523.765334 18.6460404,522.782483 C19.6549838,521.747394 20.7733043,520.847372 21.9994788,520.082818 L21.9994788,487.917182 C20.7733043,487.152628 19.6549838,486.252606 18.6460404,485.217517 C17.6882922,484.234949 16.8427179,483.162539 16.1096026,482.001304 Z" id="path-1" fill-opacity="0.8" fill="#F0F0F0" fill-rule="nonzero"></path>
        <path d="M1.2517948,528 C2.0270552,529.407187 2.96819,530.677854 4.0758056,531.814172 C5.2230757,532.991173 6.5300817,533.972463 8,534.758879 L8,569.241121 C6.5300817,570.027537 5.2230757,571.008827 4.0758056,572.185828 C2.96819,573.322146 2.0270552,574.592814 1.2517948,576 L1.2517948,576 L-33.2517947,576 C-34.0270551,574.592814 -34.96819,573.322146 -36.0758056,572.185828 C-37.2230757,571.008827 -38.5300817,570.027537 -40,569.241121 L-40,534.758879 C-38.5300817,533.972463 -37.2230757,532.991173 -36.0758056,531.814172 C-34.96819,530.677854 -34.0270551,529.407187 -33.2517947,528 L-33.2517947,528 L1.2517948,528 Z M0.1096026,530.001304 L-32.1096026,530.001304 C-32.8427179,531.162539 -33.6882922,532.234949 -34.6460404,533.217517 C-35.6547088,534.252324 -36.7726947,535.152138 -37.9984762,535.916557 L-37.9984762,568.083443 C-36.7726947,568.847862 -35.6547088,569.747676 -34.6460404,570.782483 C-33.6880158,571.765334 -32.84223,572.83808 -32.108968,573.999701 L0.108968,573.999701 C0.84223,572.83808 1.6880158,571.765334 2.6460404,570.782483 C3.6549838,569.747394 4.7733043,568.847372 5.9994788,568.082818 L5.9994788,535.917182 C4.7733043,535.152628 3.6549838,534.252606 2.6460404,533.217517 C1.6882922,532.234949 0.8427179,531.162539 0.1096026,530.001304 Z" id="path-1" fill-opacity="0.8" fill="#F0F0F0" fill-rule="nonzero"></path>
        <path d="M41.2517948,576 C42.0270552,577.407187 42.96819,578.677854 44.0758056,579.814172 C45.2230757,580.991173 46.5300817,581.972463 48,582.758879 L48,617.241121 C46.5300817,618.027537 45.2230757,619.008827 44.0758056,620.185828 C42.96819,621.322146 42.0270552,622.592814 41.2517948,624 L41.2517948,624 L6.74820525,624 C5.97294485,622.592814 5.03181002,621.322146 3.92419439,620.185828 C2.77692433,619.008827 1.46991826,618.027537 -7.10542736e-15,617.241121 L-7.10542736e-15,582.758879 C1.46991826,581.972463 2.77692433,580.991173 3.92419439,579.814172 C5.03181002,578.677854 5.97294485,577.407187 6.74820525,576 L6.74820525,576 L41.2517948,576 Z M40.1096026,578.001304 L7.89039744,578.001304 C7.15728207,579.162539 6.31170784,580.234949 5.35395957,581.217517 C4.34529123,582.252324 3.22730532,583.152138 2.00152375,583.916557 L2.00152375,616.083443 C3.22730532,616.847862 4.34529123,617.747676 5.35395957,618.782483 C6.31198417,619.765334 7.15776998,620.83808 7.89103196,621.999701 L40.108968,621.999701 C40.84223,620.83808 41.6880158,619.765334 42.6460404,618.782483 C43.6549838,617.747394 44.7733043,616.847372 45.9994788,616.082818 L45.9994788,583.917182 C44.7733043,583.152628 43.6549838,582.252606 42.6460404,581.217517 C41.6882922,580.234949 40.8427179,579.162539 40.1096026,578.001304 Z" id="path-1" fill="#FFFFFF" fill-rule="nonzero"></path>
        <path d="M17.2517948,624 C18.0270552,625.407187 18.96819,626.677854 20.0758056,627.814172 C21.2230757,628.991173 22.5300817,629.972463 24,630.758879 L24,665.241121 C22.5300817,666.027537 21.2230757,667.008827 20.0758056,668.185828 C18.96819,669.322146 18.0270552,670.592814 17.2517948,672 L17.2517948,672 L-17.2517947,672 C-18.0270551,670.592814 -18.96819,669.322146 -20.0758056,668.185828 C-21.2230757,667.008827 -22.5300817,666.027537 -24,665.241121 L-24,630.758879 C-22.5300817,629.972463 -21.2230757,628.991173 -20.0758056,627.814172 C-18.96819,626.677854 -18.0270551,625.407187 -17.2517947,624 L-17.2517947,624 L17.2517948,624 Z M16.1096026,626.001304 L-16.1096026,626.001304 C-16.8427179,627.162539 -17.6882922,628.234949 -18.6460404,629.217517 C-19.6547088,630.252324 -20.7726947,631.152138 -21.9984762,631.916557 L-21.9984762,664.083443 C-20.7726947,664.847862 -19.6547088,665.747676 -18.6460404,666.782483 C-17.6880158,667.765334 -16.84223,668.83808 -16.108968,669.999701 L16.108968,669.999701 C16.84223,668.83808 17.6880158,667.765334 18.6460404,666.782483 C19.6549838,665.747394 20.7733043,664.847372 21.9994788,664.082818 L21.9994788,631.917182 C20.7733043,631.152628 19.6549838,630.252606 18.6460404,629.217517 C17.6882922,628.234949 16.8427179,627.162539 16.1096026,626.001304 Z" id="path-1" fill="#FFFFFF" fill-rule="nonzero"></path>
        <path d="M1.2517948,672 C2.0270552,673.407187 2.96819,674.677854 4.0758056,675.814172 C5.2230757,676.991173 6.5300817,677.972463 8,678.758879 L8,713.241121 C6.5300817,714.027537 5.2230757,715.008827 4.0758056,716.185828 C2.96819,717.322146 2.0270552,718.592814 1.2517948,720 L1.2517948,720 L-33.2517947,720 C-34.0270551,718.592814 -34.96819,717.322146 -36.0758056,716.185828 C-37.2230757,715.008827 -38.5300817,714.027537 -40,713.241121 L-40,678.758879 C-38.5300817,677.972463 -37.2230757,676.991173 -36.0758056,675.814172 C-34.96819,674.677854 -34.0270551,673.407187 -33.2517947,672 L-33.2517947,672 L1.2517948,672 Z M0.1096026,674.001304 L-32.1096026,674.001304 C-32.8427179,675.162539 -33.6882922,676.234949 -34.6460404,677.217517 C-35.6547088,678.252324 -36.7726947,679.152138 -37.9984762,679.916557 L-37.9984762,712.083443 C-36.7726947,712.847862 -35.6547088,713.747676 -34.6460404,714.782483 C-33.6880158,715.765334 -32.84223,716.83808 -32.108968,717.999701 L0.108968,717.999701 C0.84223,716.83808 1.6880158,715.765334 2.6460404,714.782483 C3.6549838,713.747394 4.7733043,712.847372 5.9994788,712.082818 L5.9994788,679.917182 C4.7733043,679.152628 3.6549838,678.252606 2.6460404,677.217517 C1.6882922,676.234949 0.8427179,675.162539 0.1096026,674.001304 Z" id="path-1" fill="#FFFFFF" fill-rule="nonzero"></path>
        <path d="M41.2517948,720 C42.0270552,721.407187 42.96819,722.677854 44.0758056,723.814172 C45.2230757,724.991173 46.5300817,725.972463 48,726.758879 L48,761.241121 C46.5300817,762.027537 45.2230757,763.008827 44.0758056,764.185828 C42.96819,765.322146 42.0270552,766.592814 41.2517948,768 L41.2517948,768 L6.74820525,768 C5.97294485,766.592814 5.03181002,765.322146 3.92419439,764.185828 C2.77692433,763.008827 1.46991826,762.027537 -7.10542736e-15,761.241121 L-7.10542736e-15,726.758879 C1.46991826,725.972463 2.77692433,724.991173 3.92419439,723.814172 C5.03181002,722.677854 5.97294485,721.407187 6.74820525,720 L6.74820525,720 L41.2517948,720 Z M40.1096026,722.001304 L7.89039744,722.001304 C7.15728207,723.162539 6.31170784,724.234949 5.35395957,725.217517 C4.34529123,726.252324 3.22730532,727.152138 2.00152375,727.916557 L2.00152375,760.083443 C3.22730532,760.847862 4.34529123,761.747676 5.35395957,762.782483 C6.31198417,763.765334 7.15776998,764.83808 7.89103196,765.999701 L40.108968,765.999701 C40.84223,764.83808 41.6880158,763.765334 42.6460404,762.782483 C43.6549838,761.747394 44.7733043,760.847372 45.9994788,760.082818 L45.9994788,727.917182 C44.7733043,727.152628 43.6549838,726.252606 42.6460404,725.217517 C41.6882922,724.234949 40.8427179,723.162539 40.1096026,722.001304 Z" id="path-1" fill-opacity="0.4" fill="#C8C8C8" fill-rule="nonzero"></path>
        <path d="M17.2517948,768 C18.0270552,769.407187 18.96819,770.677854 20.0758056,771.814172 C21.2230757,772.991173 22.5300817,773.972463 24,774.758879 L24,809.241121 C22.5300817,810.027537 21.2230757,811.008827 20.0758056,812.185828 C18.96819,813.322146 18.0270552,814.592814 17.2517948,816 L17.2517948,816 L-17.2517947,816 C-18.0270551,814.592814 -18.96819,813.322146 -20.0758056,812.185828 C-21.2230757,811.008827 -22.5300817,810.027537 -24,809.241121 L-24,774.758879 C-22.5300817,773.972463 -21.2230757,772.991173 -20.0758056,771.814172 C-18.96819,770.677854 -18.0270551,769.407187 -17.2517947,768 L-17.2517947,768 L17.2517948,768 Z M16.1096026,770.001304 L-16.1096026,770.001304 C-16.8427179,771.162539 -17.6882922,772.234949 -18.6460404,773.217517 C-19.6547088,774.252324 -20.7726947,775.152138 -21.9984762,775.916557 L-21.9984762,808.083443 C-20.7726947,808.847862 -19.6547088,809.747676 -18.6460404,810.782483 C-17.6880158,811.765334 -16.84223,812.83808 -16.108968,813.999701 L16.108968,813.999701 C16.84223,812.83808 17.6880158,811.765334 18.6460404,810.782483 C19.6549838,809.747394 20.7733043,808.847372 21.9994788,808.082818 L21.9994788,775.917182 C20.7733043,775.152628 19.6549838,774.252606 18.6460404,773.217517 C17.6882922,772.234949 16.8427179,771.162539 16.1096026,770.001304 Z" id="path-1" fill-opacity="0.4" fill="#C8C8C8" fill-rule="nonzero"></path>
        <path d="M1.2517948,816 C2.0270552,817.407187 2.96819,818.677854 4.0758056,819.814172 C5.2230757,820.991173 6.5300817,821.972463 8,822.758879 L8,857.241121 C6.5300817,858.027537 5.2230757,859.008827 4.0758056,860.185828 C2.96819,861.322146 2.0270552,862.592814 1.2517948,864 L1.2517948,864 L-33.2517947,864 C-34.0270551,862.592814 -34.96819,861.322146 -36.0758056,860.185828 C-37.2230757,859.008827 -38.5300817,858.027537 -40,857.241121 L-40,822.758879 C-38.5300817,821.972463 -37.2230757,820.991173 -36.0758056,819.814172 C-34.96819,818.677854 -34.0270551,817.407187 -33.2517947,816 L-33.2517947,816 L1.2517948,816 Z M0.1096026,818.001304 L-32.1096026,818.001304 C-32.8427179,819.162539 -33.6882922,820.234949 -34.6460404,821.217517 C-35.6547088,822.252324 -36.7726947,823.152138 -37.9984762,823.916557 L-37.9984762,856.083443 C-36.7726947,856.847862 -35.6547088,857.747676 -34.6460404,858.782483 C-33.6880158,859.765334 -32.84223,860.83808 -32.108968,861.999701 L0.108968,861.999701 C0.84223,860.83808 1.6880158,859.765334 2.6460404,858.782483 C3.6549838,857.747394 4.7733043,856.847372 5.9994788,856.082818 L5.9994788,823.917182 C4.7733043,823.152628 3.6549838,822.252606 2.6460404,821.217517 C1.6882922,820.234949 0.8427179,819.162539 0.1096026,818.001304 Z" id="path-1" fill-opacity="0.4" fill="#C8C8C8" fill-rule="nonzero"></path>
        <path d="M41.2517948,864 C42.0270552,865.407187 42.96819,866.677854 44.0758056,867.814172 C45.2230757,868.991173 46.5300817,869.972463 48,870.758879 L48,905.241121 C46.5300817,906.027537 45.2230757,907.008827 44.0758056,908.185828 C42.96819,909.322146 42.0270552,910.592814 41.2517948,912 L41.2517948,912 L6.74820525,912 C5.97294485,910.592814 5.03181002,909.322146 3.92419439,908.185828 C2.77692433,907.008827 1.46991826,906.027537 7.10542736e-15,905.241121 L7.10542736e-15,870.758879 C1.46991826,869.972463 2.77692433,868.991173 3.92419439,867.814172 C5.03181002,866.677854 5.97294485,865.407187 6.74820525,864 L6.74820525,864 L41.2517948,864 Z M40.1096026,866.001304 L7.89039744,866.001304 C7.15728207,867.162539 6.31170784,868.234949 5.35395957,869.217517 C4.34529123,870.252324 3.22730532,871.152138 2.00152375,871.916557 L2.00152375,904.083443 C3.22730532,904.847862 4.34529123,905.747676 5.35395957,906.782483 C6.31198417,907.765334 7.15776998,908.83808 7.89103196,909.999701 L40.108968,909.999701 C40.84223,908.83808 41.6880158,907.765334 42.6460404,906.782483 C43.6549838,905.747394 44.7733043,904.847372 45.9994788,904.082818 L45.9994788,871.917182 C44.7733043,871.152628 43.6549838,870.252606 42.6460404,869.217517 C41.6882922,868.234949 40.8427179,867.162539 40.1096026,866.001304 Z" id="path-1" fill="#606060" fill-rule="nonzero"></path>
        <path d="M17.2517948,912 C18.0270552,913.407187 18.96819,914.677854 20.0758056,915.814172 C21.2230757,916.991173 22.5300817,917.972463 24,918.758879 L24,953.241121 C22.5300817,954.027537 21.2230757,955.008827 20.0758056,956.185828 C18.96819,957.322146 18.0270552,958.592814 17.2517948,960 L17.2517948,960 L-17.2517947,960 C-18.0270551,958.592814 -18.96819,957.322146 -20.0758056,956.185828 C-21.2230757,955.008827 -22.5300817,954.027537 -24,953.241121 L-24,918.758879 C-22.5300817,917.972463 -21.2230757,916.991173 -20.0758056,915.814172 C-18.96819,914.677854 -18.0270551,913.407187 -17.2517947,912 L-17.2517947,912 L17.2517948,912 Z M16.1096026,914.001304 L-16.1096026,914.001304 C-16.8427179,915.162539 -17.6882922,916.234949 -18.6460404,917.217517 C-19.6547088,918.252324 -20.7726947,919.152138 -21.9984762,919.916557 L-21.9984762,952.083443 C-20.7726947,952.847862 -19.6547088,953.747676 -18.6460404,954.782483 C-17.6880158,955.765334 -16.84223,956.83808 -16.108968,957.999701 L16.108968,957.999701 C16.84223,956.83808 17.6880158,955.765334 18.6460404,954.782483 C19.6549838,953.747394 20.7733043,952.847372 21.9994788,952.082818 L21.9994788,919.917182 C20.7733043,919.152628 19.6549838,918.252606 18.6460404,917.217517 C17.6882922,916.234949 16.8427179,915.162539 16.1096026,914.001304 Z" id="path-1" fill="#606060" fill-rule="nonzero"></path>
        <path d="M1.2517948,960 C2.0270552,961.407187 2.96819,962.677854 4.0758056,963.814172 C5.2230757,964.991173 6.5300817,965.972463 8,966.758879 L8,1001.24112 C6.5300817,1002.02754 5.2230757,1003.00883 4.0758056,1004.18583 C2.96819,1005.32215 2.0270552,1006.59281 1.2517948,1008 L1.2517948,1008 L-33.2517947,1008 C-34.0270551,1006.59281 -34.96819,1005.32215 -36.0758056,1004.18583 C-37.2230757,1003.00883 -38.5300817,1002.02754 -40,1001.24112 L-40,966.758879 C-38.5300817,965.972463 -37.2230757,964.991173 -36.0758056,963.814172 C-34.96819,962.677854 -34.0270551,961.407187 -33.2517947,960 L-33.2517947,960 L1.2517948,960 Z M0.1096026,962.001304 L-32.1096026,962.001304 C-32.8427179,963.162539 -33.6882922,964.234949 -34.6460404,965.217517 C-35.6547088,966.252324 -36.7726947,967.152138 -37.9984762,967.916557 L-37.9984762,1000.08344 C-36.7726947,1000.84786 -35.6547088,1001.74768 -34.6460404,1002.78248 C-33.6880158,1003.76533 -32.84223,1004.83808 -32.108968,1005.9997 L0.108968,1005.9997 C0.84223,1004.83808 1.6880158,1003.76533 2.6460404,1002.78248 C3.6549838,1001.74739 4.7733043,1000.84737 5.9994788,1000.08282 L5.9994788,967.917182 C4.7733043,967.152628 3.6549838,966.252606 2.6460404,965.217517 C1.6882922,964.234949 0.8427179,963.162539 0.1096026,962.001304 Z" id="path-1" fill="#606060" fill-rule="nonzero"></path>
        <path d="M41.2517948,1008 C42.0270552,1009.40719 42.96819,1010.67785 44.0758056,1011.81417 C45.2230757,1012.99117 46.5300817,1013.97246 48,1014.75888 L48,1049.24112 C46.5300817,1050.02754 45.2230757,1051.00883 44.0758056,1052.18583 C42.96819,1053.32215 42.0270552,1054.59281 41.2517948,1056 L41.2517948,1056 L6.74820525,1056 C5.97294485,1054.59281 5.03181002,1053.32215 3.92419439,1052.18583 C2.77692433,1051.00883 1.46991826,1050.02754 -7.10542736e-15,1049.24112 L-7.10542736e-15,1014.75888 C1.46991826,1013.97246 2.77692433,1012.99117 3.92419439,1011.81417 C5.03181002,1010.67785 5.97294485,1009.40719 6.74820525,1008 L6.74820525,1008 L41.2517948,1008 Z M40.1096026,1010.0013 L7.89039744,1010.0013 C7.15728207,1011.16254 6.31170784,1012.23495 5.35395957,1013.21752 C4.34529123,1014.25232 3.22730532,1015.15214 2.00152375,1015.91656 L2.00152375,1048.08344 C3.22730532,1048.84786 4.34529123,1049.74768 5.35395957,1050.78248 C6.31198417,1051.76533 7.15776998,1052.83808 7.89103196,1053.9997 L40.108968,1053.9997 C40.84223,1052.83808 41.6880158,1051.76533 42.6460404,1050.78248 C43.6549838,1049.74739 44.7733043,1048.84737 45.9994788,1048.08282 L45.9994788,1015.91718 C44.7733043,1015.15263 43.6549838,1014.25261 42.6460404,1013.21752 C41.6882922,1012.23495 40.8427179,1011.16254 40.1096026,1010.0013 Z" id="path-1" fill="#404040" fill-rule="nonzero"></path>
        <path d="M17.2517948,1056 C18.0270552,1057.40719 18.96819,1058.67785 20.0758056,1059.81417 C21.2230757,1060.99117 22.5300817,1061.97246 24,1062.75888 L24,1097.24112 C22.5300817,1098.02754 21.2230757,1099.00883 20.0758056,1100.18583 C18.96819,1101.32215 18.0270552,1102.59281 17.2517948,1104 L17.2517948,1104 L-17.2517947,1104 C-18.0270551,1102.59281 -18.96819,1101.32215 -20.0758056,1100.18583 C-21.2230757,1099.00883 -22.5300817,1098.02754 -24,1097.24112 L-24,1062.75888 C-22.5300817,1061.97246 -21.2230757,1060.99117 -20.0758056,1059.81417 C-18.96819,1058.67785 -18.0270551,1057.40719 -17.2517947,1056 L-17.2517947,1056 L17.2517948,1056 Z M16.1096026,1058.0013 L-16.1096026,1058.0013 C-16.8427179,1059.16254 -17.6882922,1060.23495 -18.6460404,1061.21752 C-19.6547088,1062.25232 -20.7726947,1063.15214 -21.9984762,1063.91656 L-21.9984762,1096.08344 C-20.7726947,1096.84786 -19.6547088,1097.74768 -18.6460404,1098.78248 C-17.6880158,1099.76533 -16.84223,1100.83808 -16.108968,1101.9997 L16.108968,1101.9997 C16.84223,1100.83808 17.6880158,1099.76533 18.6460404,1098.78248 C19.6549838,1097.74739 20.7733043,1096.84737 21.9994788,1096.08282 L21.9994788,1063.91718 C20.7733043,1063.15263 19.6549838,1062.25261 18.6460404,1061.21752 C17.6882922,1060.23495 16.8427179,1059.16254 16.1096026,1058.0013 Z" id="path-1" fill="#404040" fill-rule="nonzero"></path>
        <path d="M1.2517948,1104 C2.0270552,1105.40719 2.96819,1106.67785 4.0758056,1107.81417 C5.2230757,1108.99117 6.5300817,1109.97246 8,1110.75888 L8,1145.24112 C6.5300817,1146.02754 5.2230757,1147.00883 4.0758056,1148.18583 C2.96819,1149.32215 2.0270552,1150.59281 1.2517948,1152 L1.2517948,1152 L-33.2517947,1152 C-34.0270551,1150.59281 -34.96819,1149.32215 -36.0758056,1148.18583 C-37.2230757,1147.00883 -38.5300817,1146.02754 -40,1145.24112 L-40,1110.75888 C-38.5300817,1109.97246 -37.2230757,1108.99117 -36.0758056,1107.81417 C-34.96819,1106.67785 -34.0270551,1105.40719 -33.2517947,1104 L-33.2517947,1104 L1.2517948,1104 Z M0.1096026,1106.0013 L-32.1096026,1106.0013 C-32.8427179,1107.16254 -33.6882922,1108.23495 -34.6460404,1109.21752 C-35.6547088,1110.25232 -36.7726947,1111.15214 -37.9984762,1111.91656 L-37.9984762,1144.08344 C-36.7726947,1144.84786 -35.6547088,1145.74768 -34.6460404,1146.78248 C-33.6880158,1147.76533 -32.84223,1148.83808 -32.108968,1149.9997 L0.108968,1149.9997 C0.84223,1148.83808 1.6880158,1147.76533 2.6460404,1146.78248 C3.6549838,1145.74739 4.7733043,1144.84737 5.9994788,1144.08282 L5.9994788,1111.91718 C4.7733043,1111.15263 3.6549838,1110.25261 2.6460404,1109.21752 C1.6882922,1108.23495 0.8427179,1107.16254 0.1096026,1106.0013 Z" id="path-1" fill="#404040" fill-rule="nonzero"></path>
        <mask id="mask-6" fill="white">
            <use xlink:href="#path-5"></use>
        </mask>
        <use id="Mask" fill="#F0F0F0" xlink:href="#path-5"></use>
        <mask id="mask-8" fill="white">
            <use xlink:href="#path-7"></use>
        </mask>
        <use id="Mask" fill="#F0F0F0" xlink:href="#path-7"></use>
        <mask id="mask-10" fill="white">
            <use xlink:href="#path-9"></use>
        </mask>
        <use id="Mask" fill="#F0F0F0" xlink:href="#path-9"></use>
        <mask id="mask-12" fill="white">
            <use xlink:href="#path-11"></use>
        </mask>
        <use id="Mask" fill="#B79D59" xlink:href="#path-11"></use>
        <mask id="mask-14" fill="white">
            <use xlink:href="#path-13"></use>
        </mask>
        <use id="Mask" fill="#B79D59" xlink:href="#path-13"></use>
        <mask id="mask-16" fill="white">
            <use xlink:href="#path-15"></use>
        </mask>
        <use id="Mask" fill="#B79D59" xlink:href="#path-15"></use>
    </g>
</svg>